<?xml version="1.0" encoding="UTF-8"?><!DOCTYPE svg PUBLIC "-//W3C//DTD SVG 1.1//EN" "http://www.w3.org/Graphics/SVG/1.1/DTD/svg11.dtd"><svg xmlns="http://www.w3.org/2000/svg" xmlns:xlink="http://www.w3.org/1999/xlink"><defs>
<clipPath id="clip0_2403_914">
<rect width="128" height="24" fill="white"/>
</clipPath>

<clipPath id="clip0_2403_439">
<rect width="202" height="59" fill="white"/>
</clipPath>

<clipPath id="clip0_153_267">
<rect width="33.32" height="37.61" fill="white"/>
</clipPath>

<clipPath id="clip0_37030_445">
<rect width="101" height="18" fill="white"/>
</clipPath>

<clipPath id="clip0_3398_487">
<rect width="174" height="51.6832" fill="white"/>
</clipPath>
</defs><symbol id="footer-logo" viewBox="0 0 128 24">
<g clip-path="url(#clip0_2403_914)">
<path d="M1.60253 22.0513C0.468358 20.3682 -0.0946573 18.3503 3.016e-05 16.3077V7.79487C-0.137317 5.73031 0.390444 3.67661 1.50238 1.94872C2.6041 0.615385 4.30676 0 6.81067 0C9.31458 0 10.9171 0.615385 11.9187 1.74359C13.006 3.17255 13.5409 4.96181 13.421 6.76923V8.82051H8.51333V6.46154C8.55297 5.76385 8.45065 5.06533 8.21286 4.41026C8.08576 4.14583 7.88431 3.9264 7.63443 3.78018C7.38455 3.63395 7.09766 3.56763 6.81067 3.58974C6.10958 3.58974 5.60879 3.79487 5.40848 4.30769C5.18191 5.03643 5.08025 5.79984 5.10801 6.5641V17.5385C5.05512 18.2799 5.19327 19.0227 5.50864 19.6923C5.70895 20.2051 6.20973 20.4103 6.91083 20.4103C7.61192 20.4103 8.01255 20.2051 8.21286 19.6923C8.44058 18.9992 8.54242 18.2692 8.51333 17.5385V15.0769H13.421V17.1282C13.5229 18.9651 12.9911 20.7803 11.9187 22.2564C10.9171 23.4872 9.21443 24.1026 6.81067 24.1026C4.40692 24 2.6041 23.3846 1.60253 22.0513Z" fill="currentColor"/>
<path d="M19.3302 0.307617H25.0391L29.2457 23.6922H24.6385L23.8373 18.7692H20.5321L19.7309 23.6922H15.0235L19.3302 0.307617ZM23.4366 15.6922L22.2348 6.56403L21.0329 15.6922H23.4366Z" fill="currentColor"/>
<path d="M32.7511 4.20505H29.3458V0.307617H41.2645V4.10249H37.8591V23.6922H32.7511V4.20505Z" fill="currentColor"/>
<path d="M50.3787 0.307617H59.1925V2.76916H53.4836V10.4615H58.0908V12.8204H53.4836V21.4358H59.1925V23.7948H50.2786V0.307617H50.3787Z" fill="currentColor"/>
<path d="M61.7966 0.307617H64L70.5102 15.7948V0.307617H73.1143V23.6922H71.1111L64.5008 7.69223V23.6922H61.7966V0.307617Z" fill="currentColor"/>
<path d="M76.119 0.307617H84.9327V2.76916H79.2238V10.4615H83.831V12.8204H79.2238V21.4358H84.9327V23.7948H76.119V0.307617Z" fill="currentColor"/>
<path d="M87.5368 0.3076H92.144C93.9564 0.179397 95.7575 0.685711 97.252 1.7435C98.3537 2.66657 98.8545 4.3076 98.8545 6.46145C98.8545 9.4358 97.9531 11.282 96.0501 11.8973L99.2551 23.5897H96.1503L93.1456 12.6153H90.6416V23.5897H87.4366V0.3076H87.5368ZM91.9437 10.3589C92.9762 10.446 94.0054 10.1553 94.8482 9.53837C95.4492 9.02555 95.7496 7.99991 95.7496 6.46145C95.7774 5.69719 95.6757 4.93378 95.4492 4.20504C95.2237 3.68211 94.8366 3.24964 94.3474 2.97427C93.6576 2.65236 92.9003 2.51137 92.144 2.56401H90.7418V10.2563H91.9437V10.3589Z" fill="currentColor"/>
<path d="M102.861 21.9489C101.82 20.1556 101.331 18.0824 101.458 16.0002V8.20531C101.434 6.719 101.602 5.23592 101.959 3.79506C102.294 2.71836 102.962 1.78243 103.862 1.12839C104.981 0.450519 106.271 0.129161 107.568 0.205314C109.671 0.205314 111.174 0.718135 112.075 1.84634C113.112 3.33607 113.608 5.15002 113.477 6.97455V7.79506H110.473V7.07711C110.477 6.21813 110.41 5.36032 110.272 4.51301C110.188 3.97756 109.9 3.49816 109.471 3.17967C108.908 2.80128 108.24 2.62124 107.568 2.66685C106.85 2.61973 106.139 2.83809 105.565 3.28224C105.329 3.48554 105.137 3.73594 104.999 4.01811C104.861 4.30029 104.781 4.60829 104.764 4.92326C104.632 5.84017 104.565 6.76567 104.563 7.69249V16.4104C104.49 17.7386 104.694 19.0676 105.164 20.3079C105.565 21.1284 106.366 21.4361 107.568 21.4361C108.043 21.4966 108.524 21.4121 108.952 21.1931C109.379 20.9741 109.734 20.6304 109.972 20.2053C110.501 18.9083 110.741 17.5067 110.673 16.1027V14.4617H107.768V12.1028H113.577V23.6925H111.574L111.274 21.0258C111.011 21.9195 110.464 22.6977 109.72 23.2366C108.976 23.7756 108.078 24.0443 107.167 24.0002C106.34 24.05 105.513 23.8887 104.761 23.5307C104.01 23.1727 103.357 22.6291 102.861 21.9489Z" fill="currentColor"/>
<path d="M119.988 15.4871L115.08 0.410156H118.085L121.59 11.6922L124.995 0.410156H128L123.092 15.4871V23.6922H120.088V15.4871H119.988Z" fill="currentColor"/>
</g>

</symbol><symbol id="logo-html-academy" viewBox="0 0 163 34">
<path d="M1.28125 21V9.54688H2.79688V14.25H8.75V9.54688H10.2656V21H8.75V15.6016H2.79688V21H1.28125ZM15.7109 21V10.8984H11.9375V9.54688H21.0156V10.8984H17.2266V21H15.7109ZM22.5312 21V9.54688H24.8125L27.5234 17.6562C27.7734 18.4115 27.9557 18.9766 28.0703 19.3516C28.2005 18.9349 28.4036 18.3229 28.6797 17.5156L31.4219 9.54688H33.4609V21H32V11.4141L28.6719 21H27.3047L23.9922 11.25V21H22.5312ZM35.8438 21V9.54688H37.3594V19.6484H43V21H35.8438ZM46.5234 21L50.9219 9.54688H52.5547L57.2422 21H55.5156L54.1797 17.5312H49.3906L48.1328 21H46.5234ZM49.8281 16.2969H53.7109L52.5156 13.125C52.151 12.1615 51.8802 11.3698 51.7031 10.75C51.5573 11.4844 51.3516 12.2135 51.0859 12.9375L49.8281 16.2969ZM63.6875 17.9609L65.0703 18.1406C64.9193 19.0938 64.5312 19.8411 63.9062 20.3828C63.2865 20.9193 62.5234 21.1875 61.6172 21.1875C60.4818 21.1875 59.5677 20.8177 58.875 20.0781C58.1875 19.3333 57.8438 18.2682 57.8438 16.8828C57.8438 15.987 57.9922 15.2031 58.2891 14.5312C58.5859 13.8594 59.0365 13.3568 59.6406 13.0234C60.25 12.6849 60.9115 12.5156 61.625 12.5156C62.526 12.5156 63.263 12.7448 63.8359 13.2031C64.4089 13.6562 64.776 14.3021 64.9375 15.1406L63.5703 15.3516C63.4401 14.7943 63.2083 14.375 62.875 14.0938C62.5469 13.8125 62.1484 13.6719 61.6797 13.6719C60.9714 13.6719 60.3958 13.9271 59.9531 14.4375C59.5104 14.9427 59.2891 15.7448 59.2891 16.8438C59.2891 17.9583 59.5026 18.7682 59.9297 19.2734C60.3568 19.7786 60.9141 20.0312 61.6016 20.0312C62.1536 20.0312 62.6146 19.862 62.9844 19.5234C63.3542 19.1849 63.5885 18.6641 63.6875 17.9609ZM71.6875 19.9766C71.1667 20.4193 70.6641 20.7318 70.1797 20.9141C69.7005 21.0964 69.1849 21.1875 68.6328 21.1875C67.7214 21.1875 67.0208 20.9661 66.5312 20.5234C66.0417 20.0755 65.7969 19.5052 65.7969 18.8125C65.7969 18.4062 65.888 18.0365 66.0703 17.7031C66.2578 17.3646 66.5 17.0938 66.7969 16.8906C67.099 16.6875 67.4375 16.5339 67.8125 16.4297C68.0885 16.3568 68.5052 16.2865 69.0625 16.2188C70.1979 16.0833 71.0339 15.9219 71.5703 15.7344C71.5755 15.5417 71.5781 15.4193 71.5781 15.3672C71.5781 14.7943 71.4453 14.3906 71.1797 14.1562C70.8203 13.8385 70.2865 13.6797 69.5781 13.6797C68.9167 13.6797 68.4271 13.7969 68.1094 14.0312C67.7969 14.2604 67.5651 14.6693 67.4141 15.2578L66.0391 15.0703C66.1641 14.4818 66.3698 14.0078 66.6562 13.6484C66.9427 13.2839 67.3568 13.0052 67.8984 12.8125C68.4401 12.6146 69.0677 12.5156 69.7812 12.5156C70.4896 12.5156 71.0651 12.599 71.5078 12.7656C71.9505 12.9323 72.276 13.1432 72.4844 13.3984C72.6927 13.6484 72.8385 13.9661 72.9219 14.3516C72.9688 14.5911 72.9922 15.0234 72.9922 15.6484V17.5234C72.9922 18.8307 73.0208 19.6589 73.0781 20.0078C73.1406 20.3516 73.2604 20.6823 73.4375 21H71.9688C71.8229 20.7083 71.7292 20.3672 71.6875 19.9766ZM71.5703 16.8359C71.0599 17.0443 70.2943 17.2214 69.2734 17.3672C68.6953 17.4505 68.2865 17.5443 68.0469 17.6484C67.8073 17.7526 67.6224 17.9062 67.4922 18.1094C67.362 18.3073 67.2969 18.5286 67.2969 18.7734C67.2969 19.1484 67.4375 19.4609 67.7188 19.7109C68.0052 19.9609 68.4219 20.0859 68.9688 20.0859C69.5104 20.0859 69.9922 19.9688 70.4141 19.7344C70.8359 19.4948 71.1458 19.1693 71.3438 18.7578C71.4948 18.4401 71.5703 17.9714 71.5703 17.3516V16.8359ZM80.5625 21V19.9531C80.0365 20.776 79.263 21.1875 78.2422 21.1875C77.5807 21.1875 76.9714 21.0052 76.4141 20.6406C75.862 20.276 75.4323 19.7682 75.125 19.1172C74.8229 18.4609 74.6719 17.7083 74.6719 16.8594C74.6719 16.0312 74.8099 15.2812 75.0859 14.6094C75.362 13.9323 75.776 13.4141 76.3281 13.0547C76.8802 12.6953 77.4974 12.5156 78.1797 12.5156C78.6797 12.5156 79.125 12.6224 79.5156 12.8359C79.9062 13.0443 80.224 13.3177 80.4688 13.6562V9.54688H81.8672V21H80.5625ZM76.1172 16.8594C76.1172 17.9219 76.3411 18.7161 76.7891 19.2422C77.237 19.7682 77.7656 20.0312 78.375 20.0312C78.9896 20.0312 79.5104 19.7812 79.9375 19.2812C80.3698 18.776 80.5859 18.0078 80.5859 16.9766C80.5859 15.8411 80.3672 15.0078 79.9297 14.4766C79.4922 13.9453 78.9531 13.6797 78.3125 13.6797C77.6875 13.6797 77.1641 13.9349 76.7422 14.4453C76.3255 14.9557 76.1172 15.7604 76.1172 16.8594ZM89.7656 18.3281L91.2188 18.5078C90.9896 19.3568 90.5651 20.0156 89.9453 20.4844C89.3255 20.9531 88.5339 21.1875 87.5703 21.1875C86.3568 21.1875 85.3932 20.8151 84.6797 20.0703C83.9714 19.3203 83.6172 18.2708 83.6172 16.9219C83.6172 15.526 83.9766 14.4427 84.6953 13.6719C85.4141 12.901 86.3464 12.5156 87.4922 12.5156C88.6016 12.5156 89.5078 12.8932 90.2109 13.6484C90.9141 14.4036 91.2656 15.4661 91.2656 16.8359C91.2656 16.9193 91.263 17.0443 91.2578 17.2109H85.0703C85.1224 18.1224 85.3802 18.8203 85.8438 19.3047C86.3073 19.7891 86.8854 20.0312 87.5781 20.0312C88.0938 20.0312 88.5339 19.8958 88.8984 19.625C89.263 19.3542 89.5521 18.9219 89.7656 18.3281ZM85.1484 16.0547H89.7812C89.7188 15.3568 89.5417 14.8333 89.25 14.4844C88.8021 13.9427 88.2214 13.6719 87.5078 13.6719C86.862 13.6719 86.3177 13.888 85.875 14.3203C85.4375 14.7526 85.1953 15.3307 85.1484 16.0547ZM92.9922 21V12.7031H94.25V13.8672C94.5104 13.4609 94.8568 13.1354 95.2891 12.8906C95.7214 12.6406 96.2135 12.5156 96.7656 12.5156C97.3802 12.5156 97.8828 12.6432 98.2734 12.8984C98.6693 13.1536 98.9479 13.5104 99.1094 13.9688C99.7656 13 100.62 12.5156 101.672 12.5156C102.495 12.5156 103.128 12.7448 103.57 13.2031C104.013 13.6562 104.234 14.3568 104.234 15.3047V21H102.836V15.7734C102.836 15.2109 102.789 14.8073 102.695 14.5625C102.607 14.3125 102.443 14.112 102.203 13.9609C101.964 13.8099 101.682 13.7344 101.359 13.7344C100.776 13.7344 100.292 13.9297 99.9062 14.3203C99.5208 14.7057 99.3281 15.3255 99.3281 16.1797V21H97.9219V15.6094C97.9219 14.9844 97.8073 14.5156 97.5781 14.2031C97.349 13.8906 96.974 13.7344 96.4531 13.7344C96.0573 13.7344 95.6901 13.8385 95.3516 14.0469C95.0182 14.2552 94.776 14.5599 94.625 14.9609C94.474 15.362 94.3984 15.9401 94.3984 16.6953V21H92.9922ZM106.258 24.1953L106.102 22.875C106.409 22.9583 106.677 23 106.906 23C107.219 23 107.469 22.9479 107.656 22.8438C107.844 22.7396 107.997 22.5938 108.117 22.4062C108.206 22.2656 108.349 21.9167 108.547 21.3594C108.573 21.2812 108.615 21.1667 108.672 21.0156L105.523 12.7031H107.039L108.766 17.5078C108.99 18.1172 109.19 18.7578 109.367 19.4297C109.529 18.7839 109.721 18.1536 109.945 17.5391L111.719 12.7031H113.125L109.969 21.1406C109.63 22.0521 109.367 22.6797 109.18 23.0234C108.93 23.487 108.643 23.8255 108.32 24.0391C107.997 24.2578 107.612 24.3672 107.164 24.3672C106.893 24.3672 106.591 24.3099 106.258 24.1953Z" fill="#444444"/>
<path d="M149.643 0.0157537L149.5 0L136 1.40733V26.0129L149.5 34L163 26.0129V1.40733L149.643 0.0157537ZM161.234 25.0151L149.5 31.9573L137.766 25.0151V14.9293L149.451 21.8451L149.47 23.0984L141.454 18.3548L141.443 19.5801L149.489 24.3885L149.509 25.675L141.464 20.9174L141.454 22.1427L149.5 26.9511L157.624 22.1182V20.8929V16.909L161.243 14.7595L161.234 25.0151ZM161.234 13.4519L158.015 15.3319L156.533 16.2071L149.467 12.0201L149.456 13.2454L155.496 16.818L155.443 16.8495L155.313 16.9247L154.454 17.4166L149.467 14.4689L149.456 15.6942L153.392 18.0222L152.459 18.6314L152.438 18.6436L149.467 16.902L149.456 18.1273L151.403 19.2615L149.416 20.4483L137.797 13.5762L149.435 6.61831L161.234 13.4519ZM161.234 12.2266L149.44 5.31075L137.766 12.2196V2.9897L149.5 1.76442L161.234 2.9897V12.2266Z" fill="currentColor"/>
</symbol><symbol id="main-nav__toggle--burger" viewBox="0 0 24 18">
<line y1="1.25" x2="24" y2="1.25" stroke="black" stroke-width="1.5"/>
<line y1="9.25" x2="24" y2="9.25" stroke="black" stroke-width="1.5"/>
<line y1="17.25" x2="24" y2="17.25" stroke="black" stroke-width="1.5"/>
</symbol><symbol id="main-nav__toggle--close" viewBox="0 0 20 20">
<line y1="-0.75" x2="24.7577" y2="-0.75" transform="matrix(0.686589 -0.727046 0.686589 0.727046 2.00171 20)" stroke="black" stroke-width="1.5"/>
<line y1="-0.75" x2="24.7577" y2="-0.75" transform="matrix(0.686589 0.727046 -0.686589 0.727046 1 2)" stroke="black" stroke-width="1.5"/>
</symbol><symbol id="number1" viewBox="0 0 71 227">
<path d="M40.3722 227V39.4C40.1855 39.5867 38.0389 40.1467 33.9322 41.08C30.0122 42.0133 25.5322 42.9467 20.4922 43.88C15.4522 44.8133 10.9722 45.6533 7.05219 46.4C3.13219 47.1467 1.07885 47.52 0.892188 47.52V24.84C4.06552 24.0933 7.70552 23.0667 11.8122 21.76C16.1055 20.4533 20.3989 18.8667 24.6922 17C29.1722 15.1333 33.3722 12.8 37.2922 9.99999C41.3989 7.19999 44.8522 3.93332 47.6522 0.199983H70.3322V227H40.3722Z" fill="#F2F2F2"/>
</symbol><symbol id="number2" viewBox="0 0 113 229">
<path d="M0.624532 229V207.72L58.3045 117.84C62.5979 111.12 66.5179 104.867 70.0645 99.08C73.7979 93.2933 76.7845 87.2267 79.0245 80.88C81.4512 74.3467 82.6645 66.88 82.6645 58.48C82.6645 48.0267 80.9845 39.8133 77.6245 33.84C74.2645 27.8667 68.3845 24.88 59.9845 24.88C52.8912 24.88 47.3845 26.84 43.4645 30.76C39.5445 34.68 36.8379 39.8133 35.3445 46.16C33.8512 52.5067 33.1045 59.32 33.1045 66.6V74.16H3.14453V66.32C3.14453 52.6933 4.91787 41.0267 8.46453 31.32C12.1979 21.4267 18.0779 13.7733 26.1045 8.35999C34.3179 2.94666 45.1445 0.239991 58.5845 0.239991C76.8779 0.239991 90.5045 5.46666 99.4645 15.92C108.425 26.1867 112.905 40.4667 112.905 58.76C112.905 68.4667 111.691 76.96 109.265 84.24C107.025 91.52 104.038 98.3333 100.305 104.68C96.5712 111.027 92.4645 117.56 87.9845 124.28L35.9045 203.8H107.585V229H0.624532Z" fill="#F2F2F2"/>
</symbol><symbol id="number3" viewBox="0 0 112 232">
<path d="M55.9213 231.52C43.6013 231.52 33.3346 229.187 25.1213 224.52C16.9079 219.853 10.7479 213.133 6.64125 204.36C2.53458 195.587 0.481251 185.227 0.481251 173.28V165.72H30.1613C30.1613 166.467 30.1613 167.307 30.1613 168.24C30.1613 168.987 30.1613 169.827 30.1613 170.76C30.3479 177.48 31.0946 183.547 32.4013 188.96C33.8946 194.373 36.4146 198.667 39.9613 201.84C43.6946 205.013 49.0146 206.6 55.9213 206.6C63.2013 206.6 68.7079 204.92 72.4413 201.56C76.1746 198.013 78.6946 193.067 80.0013 186.72C81.3079 180.373 81.9613 173.093 81.9613 164.88C81.9613 152.933 79.7213 143.227 75.2413 135.76C70.9479 128.107 63.2946 123.907 52.2813 123.16C51.7213 122.973 50.9746 122.88 50.0413 122.88C49.2946 122.88 48.6413 122.88 48.0813 122.88V92.92C48.6413 92.92 49.2946 92.92 50.0413 92.92C50.7879 92.92 51.4413 92.92 52.0013 92.92C62.6413 92.5467 70.2946 89.7467 74.9613 84.52C79.6279 79.2933 81.9613 70.6133 81.9613 58.48C81.9613 48.2133 80.1879 40 76.6413 33.84C73.2813 27.68 66.4679 24.6 56.2013 24.6C45.9346 24.6 39.1213 28.0533 35.7613 34.96C32.4013 41.68 30.5346 50.36 30.1613 61C30.1613 61.7467 30.1613 62.5867 30.1613 63.52C30.1613 64.2667 30.1613 65.0133 30.1613 65.76H0.481251V58.2C0.481251 46.0667 2.53458 35.7067 6.64125 27.12C10.7479 18.5333 16.9079 11.9067 25.1213 7.23998C33.5213 2.57332 43.8813 0.239991 56.2013 0.239991C68.7079 0.239991 79.0679 2.57332 87.2813 7.23998C95.4946 11.9067 101.655 18.6267 105.761 27.4C109.868 35.9867 111.921 46.3467 111.921 58.48C111.921 72.1067 108.935 83.0267 102.961 91.24C97.1746 99.4533 89.3346 105.053 79.4413 108.04C86.3479 110.093 92.1346 113.64 96.8013 118.68C101.655 123.72 105.388 130.16 108.001 138C110.615 145.653 111.921 154.613 111.921 164.88C111.921 178.32 110.055 190.08 106.321 200.16C102.588 210.053 96.6146 217.8 88.4013 223.4C80.1879 228.813 69.3613 231.52 55.9213 231.52Z" fill="#F2F2F2"/>
</symbol><symbol id="number4" viewBox="0 0 121 227">
<path d="M66.3242 227V166.24H0.52422V134.88L59.6042 0.199983H94.8842V139.64H120.364V166.24H94.8842V227H66.3242ZM29.3642 139.64H66.3242V36.6L29.3642 139.64Z" fill="#F2F2F2"/>
</symbol><symbol id="page-header__logo--desktop" viewBox="0 0 202 59">
<g clip-path="url(#clip0_2403_439)">
<path d="M59.8825 23.8063C58.1585 19.7092 55.3821 16.1318 51.83 13.4305C48.2778 10.7293 44.074 8.99857 39.6374 8.41088C35.2008 7.82319 30.6864 8.39905 26.5441 10.0811C22.4017 11.7631 18.7762 14.4925 16.0287 17.9973C13.2812 21.5021 11.5077 25.6599 10.885 30.0564C10.2622 34.4529 10.812 38.9344 12.4795 43.0545C14.147 47.1745 16.874 50.7892 20.3887 53.5382C23.9034 56.2872 28.083 58.0746 32.5111 58.7223C31.9311 56.6491 31.3411 54.3578 30.8211 51.9275C32.3339 52.9009 33.9262 53.747 35.5813 54.457C35.5813 54.457 35.7013 56.5995 35.8613 58.9901C37.6496 59.0207 39.4362 58.8644 41.1916 58.5239C41.1462 58.2746 41.1462 58.0193 41.1916 57.77C41.4816 55.9151 42.2816 52.5723 42.4416 50.4198C43.595 49.3498 44.5734 48.1082 45.3418 46.7397L45.2818 47.1762C44.7317 51.4018 43.5817 55.9151 42.8817 57.1649C42.655 57.5786 42.3761 57.962 42.0516 58.3056C45.6716 57.4633 49.0636 55.8502 51.9924 53.5781C54.9212 51.3059 57.3168 48.4292 59.013 45.1473C60.7093 41.8653 61.6656 38.2568 61.8158 34.5717C61.9659 30.8867 61.3062 27.2133 59.8825 23.8063ZM58.4124 27.5657C57.9724 27.9923 57.0624 28.2799 56.9123 26.9904C56.7623 25.7009 56.7223 24.7983 56.7223 24.7983C56.7223 24.7983 54.7922 21.3959 54.0722 21.3563C53.3522 21.3166 48.2419 24.7983 46.8918 26.3159C45.7218 27.5955 45.4918 27.5062 45.4918 29.7579C45.4918 31.4541 45.7118 37.862 45.5918 42.7621L37.4414 44.9146C34.8796 45.6438 32.2744 46.2137 29.641 46.6207L28.6409 40.8378H28.5009L25.9308 27.774C25.9308 27.774 22.1206 26.3457 20.7206 25.9588C20.0632 25.6735 19.3372 25.5808 18.6284 25.6915C17.9196 25.8023 17.2575 26.1118 16.7204 26.5837C16.1723 27.0597 15.7342 27.6471 15.4356 28.3061C15.1371 28.9651 14.9852 29.6802 14.9903 30.4027C15.2017 30.8637 15.3626 31.3459 15.4703 31.841C15.5203 32.3171 14.2702 32.2675 13.4702 32.2675C12.6702 32.2675 12.5502 30.8391 13.1802 29.1627C13.6717 27.8737 14.2809 26.632 15.0003 25.4529C15.5413 24.3997 16.2392 23.4333 17.0704 22.5862C17.0704 22.5862 17.2104 22.249 18.3204 22.3482C19.4305 22.4474 25.6008 22.7747 25.6008 22.7747L25.6508 20.523C32.3575 19.6045 39.1216 19.1603 45.8918 19.1938C45.8918 19.7989 45.8918 20.404 45.8918 21.0091C48.4562 19.8483 51.2175 19.1754 54.0322 19.0252C54.1828 19.0214 54.332 19.0548 54.4664 19.1223C54.6008 19.1898 54.7162 19.2894 54.8022 19.4121C55.1423 19.8386 57.2124 22.3879 57.4524 22.7549C58.1246 23.7078 58.7359 24.7017 59.2825 25.7307C59.0951 26.3822 58.8012 26.9988 58.4124 27.5558V27.5657Z" fill="#FDC305"/>
<path d="M56.4628 21.4951C56.9329 22.0903 57.3429 22.616 57.4629 22.7747C58.1351 23.7277 58.7464 24.7215 59.293 25.7505C59.1027 26.3806 58.8124 26.9767 58.4329 27.5161C57.9929 27.9427 57.0829 28.2303 56.9329 26.9408C56.7829 25.6513 56.7229 24.7983 56.7229 24.7983C56.7229 24.7983 54.7928 21.3959 54.0727 21.3563C53.3527 21.3166 48.2424 24.7983 46.8924 26.3159C45.7223 27.5955 45.4923 27.5062 45.4923 29.7579C45.4923 31.2458 45.6623 36.3542 45.6223 40.8973C47.4324 41.0957 50.0925 41.5916 50.8926 42.7621C50.8926 42.7621 50.6026 35.64 58.703 39.3697C58.703 39.3697 58.983 29.6587 70.1635 32.1485C66.3628 27.7223 61.7035 24.0994 56.4628 21.4951Z" fill="#F06351"/>
<path d="M45.9323 19.1938C45.9729 13.6973 45.5043 8.2087 44.5322 2.79724C44.5322 2.79724 44.3822 1.50773 43.6622 2.55918C43.068 3.81617 42.6636 5.15308 42.4621 6.5269C38.1871 6.25483 33.896 6.36771 29.6415 6.86415C28.8214 4.13635 27.4214 2.89643 26.7513 3.22377C26.0813 3.55111 26.0013 6.4773 26.0013 6.4773L25.6713 20.523C32.3846 19.6036 39.1554 19.1594 45.9323 19.1938Z" fill="#F06351"/>
<path d="M45.3515 46.7397C45.4815 45.6784 45.5515 44.2698 45.5915 42.7125L37.4415 44.865C34.8809 45.611 32.2758 46.1974 29.6415 46.6207L30.7515 51.5804C30.7515 51.6895 30.7515 51.7986 30.8215 51.9077C32.3342 52.8811 33.9265 53.7272 35.5815 54.4371C38.0002 53.2903 40.3038 51.9186 42.4615 50.3404V50.4C43.6096 49.3352 44.5845 48.1005 45.3515 46.7397Z" fill="#E55645"/>
<path d="M32.0016 16.0891C31.9516 15.9899 33.0016 16.7636 33.4116 17.0017C33.8216 17.2397 34.0216 17.4183 34.0216 17.5869C34.0216 17.7556 33.7616 17.9242 33.4016 17.9242C33.0416 17.9242 32.4816 17.8051 32.4016 17.6663C32.3216 17.5274 33.0016 17.6663 33.3416 17.6663H33.6316C33.0159 17.2195 32.4672 16.6885 32.0016 16.0891Z" fill="black"/>
<path d="M39.502 16.1982C39.502 16.1982 38.502 17.4679 38.412 17.5274C38.322 17.5869 38.2419 17.8647 38.6019 17.8151C39.0152 17.7539 39.4231 17.661 39.8219 17.5373C39.9319 17.4778 39.892 17.3389 39.702 17.3588C39.512 17.3786 39.022 17.4084 38.702 17.4679L39.5519 16.2081C39.5519 16.2081 39.582 16.0891 39.502 16.1982Z" fill="black"/>
<path d="M36.3617 22.2589C36.8253 22.0563 37.2084 21.7077 37.4517 21.267C37.7317 20.6123 37.4517 20.3643 37.0117 20.275C36.4064 20.1655 35.7817 20.2859 35.2617 20.6123C34.8717 20.9793 34.9217 21.3364 35.2617 21.6042C35.5995 21.867 35.9691 22.0869 36.3617 22.2589Z" fill="black"/>
<path d="M36.0016 23.5087C35.8868 23.7337 35.7308 23.9355 35.5416 24.1039C35.2568 24.3312 34.9067 24.4631 34.5416 24.4808C33.991 24.5344 33.4405 24.3784 33.0016 24.0444C32.8 23.9274 32.6206 23.7764 32.4716 23.598C32.3715 23.49 32.2486 23.4053 32.1116 23.35C32.1116 23.35 32.8616 27.4269 34.6816 28.0815C36.5016 28.7362 36.8416 27.3277 36.8916 26.9507C36.9525 25.8218 36.6666 24.7011 36.0716 23.7369C36.0716 23.4393 36.0516 23.6377 36.0016 23.5087Z" fill="#F06351"/>
<path d="M34.3015 24.6395C33.8335 24.5728 33.384 24.4127 32.9801 24.1689C32.5763 23.9251 32.2263 23.6027 31.9515 23.2211C31.9269 23.1938 31.9133 23.1585 31.9133 23.1219C31.9133 23.0853 31.9269 23.05 31.9515 23.0227C31.9646 23.0095 31.9801 22.999 31.9973 22.9919C32.0145 22.9847 32.0329 22.981 32.0515 22.981C32.0702 22.981 32.0886 22.9847 32.1058 22.9919C32.1229 22.999 32.1385 23.0095 32.1515 23.0227C32.399 23.3671 32.7129 23.6593 33.0751 23.8823C33.4374 24.1054 33.8406 24.2549 34.2615 24.3221C34.5945 24.2973 34.9168 24.1945 35.2019 24.022C35.487 23.8496 35.7268 23.6125 35.9015 23.3302L36.0415 23.1417L36.1415 23.36C36.1415 23.36 36.5215 24.1138 37.1415 24.1535C37.7615 24.1932 38.2015 23.7369 38.7715 22.8739C38.7927 22.8423 38.8257 22.8204 38.8632 22.813C38.9007 22.8055 38.9397 22.8132 38.9715 22.8342C39.0034 22.8553 39.0254 22.888 39.0329 22.9252C39.0404 22.9624 39.0327 23.001 39.0115 23.0326C38.3449 24.0047 37.7149 24.4709 37.1215 24.4312C36.8922 24.4011 36.6726 24.3204 36.4788 24.1951C36.285 24.0698 36.1219 23.9031 36.0015 23.7071C35.8059 23.9781 35.5518 24.2025 35.2577 24.3638C34.9636 24.5251 34.6369 24.6193 34.3015 24.6395Z" fill="black"/>
<path d="M36.2616 37.9909C38.3327 37.9909 40.0116 36.3255 40.0116 34.2712C40.0116 32.2168 38.3327 30.5514 36.2616 30.5514C34.1905 30.5514 32.5116 32.2168 32.5116 34.2712C32.5116 36.3255 34.1905 37.9909 36.2616 37.9909Z" fill="#FDC305"/>
<path d="M41.2316 31.2458L38.1016 32.5452L39.2516 26.9607L31.7516 36.6419L34.8816 35.3425L33.7316 40.937L41.2316 31.2458ZM33.8416 35.0449L38.0016 29.6786L37.1916 33.6463L39.1916 32.8329L35.0016 38.2092L35.8116 34.2414L33.8416 35.0449Z" fill="#111111"/>
<path d="M32.4415 33.5868C33.0601 33.5868 33.5615 33.0894 33.5615 32.4758C33.5615 31.8622 33.0601 31.3648 32.4415 31.3648C31.823 31.3648 31.3215 31.8622 31.3215 32.4758C31.3215 33.0894 31.823 33.5868 32.4415 33.5868Z" fill="#111111"/>
<path d="M38.9619 37.614C39.3982 37.614 39.7519 37.2631 39.7519 36.8304C39.7519 36.3976 39.3982 36.0467 38.9619 36.0467C38.5256 36.0467 38.1719 36.3976 38.1719 36.8304C38.1719 37.2631 38.5256 37.614 38.9619 37.614Z" fill="#111111"/>
<path d="M39.9219 35.4615C40.1152 35.4615 40.2719 35.3061 40.2719 35.1143C40.2719 34.9226 40.1152 34.7672 39.9219 34.7672C39.7286 34.7672 39.5719 34.9226 39.5719 35.1143C39.5719 35.3061 39.7286 35.4615 39.9219 35.4615Z" fill="#111111"/>
<path d="M45.8822 20.9892C44.077 22.6034 42.3768 24.3295 40.792 26.1572C39.2133 27.9717 37.4318 29.6023 35.4817 31.0177C35.2617 30.4919 33.8516 29.5099 33.8516 29.5099C33.8516 29.5099 30.7115 27.3773 28.6514 25.7009C27.5377 24.7809 26.4886 23.7867 25.5112 22.7251L23.5111 22.616C26.3983 26.7991 30.628 29.8897 35.5117 31.3847C36.3717 31.2458 38.7919 29.5298 40.602 28.1311C42.7434 26.3247 44.7489 24.3654 46.6022 22.2688C47.1004 21.6816 47.4867 21.0094 47.7423 20.285C46.6023 20.6619 45.8822 20.9892 45.8822 20.9892Z" fill="#F06351"/>
<path d="M65.2227 3.47176L56.7627 12.8356L55.5427 10.8616L63.6927 0L65.2227 3.47176Z" fill="#FDC305"/>
<path d="M62.6531 17.1207L68.1931 13.0439L67.4131 9.33406L62.0131 14.1052L62.6531 17.1207Z" fill="#FDC305"/>
<path d="M59.923 48.9716L66.053 52.1259L69.063 49.8048L62.373 47.077L59.923 48.9716Z" fill="#FDC305"/>
<path d="M1.94995 5.92182L5.01995 2.58894L14.31 11.5163L13.09 13.7779L1.94995 5.92182Z" fill="#FDC305"/>
<path d="M7.38003 16.1486L2.68003 13.0439L0.280029 16.8826L5.43003 19.2633L7.38003 16.1486Z" fill="#FDC305"/>
<path d="M13.91 52.1259L9.35999 55.4489L12.16 59L16.18 55.0124L13.91 52.1259Z" fill="#FDC305"/>
<path d="M25.9313 27.774C25.9313 27.774 22.1211 26.3457 20.721 25.9588C20.0636 25.6735 19.3377 25.5808 18.6289 25.6915C17.9201 25.8023 17.258 26.1118 16.7208 26.5837C16.1728 27.0597 15.7346 27.6471 15.4361 28.3061C15.1375 28.9651 14.9856 29.6802 14.9907 30.4027C15.2021 30.8637 15.3631 31.3459 15.4708 31.841C15.5208 32.3171 14.2707 32.2675 13.4707 32.2675C12.6706 32.2675 12.5506 30.8391 13.1807 29.1627C13.6722 27.8737 14.2814 26.632 15.0007 25.4529C9.55047 28.27 0 34.7771 0 34.7771C2.73182 34.6137 5.47292 34.6933 8.1904 35.0151C13.4407 35.5409 13.1907 39.6474 13.1907 39.6474C15.0373 39.1425 16.9192 38.7745 18.8209 38.5464C20.941 38.4075 21.091 40.6493 21.091 40.6493L21.6211 44.4781C22.4259 43.6145 23.3134 42.8305 24.2712 42.1372C25.5057 41.157 27.0776 40.6942 28.6514 40.8477L25.9313 27.774Z" fill="#F06351"/>
<path d="M85.6642 41.6611C84.634 40.1469 84.1415 38.3356 84.2642 36.5129V29.0735C84.1343 27.2374 84.6194 25.4102 85.6442 23.8758C86.5709 22.6921 88.1542 22.1035 90.3942 22.1101C92.6342 22.1167 94.1509 22.6358 94.9442 23.6675C95.9115 24.9458 96.3836 26.5265 96.2742 28.1212V29.867H92.1342V27.9724C92.1286 27.4739 92.0852 26.9766 92.0042 26.4845C91.9542 26.1283 91.7893 25.7978 91.5342 25.5422C91.3767 25.4083 91.1939 25.3068 90.9965 25.2438C90.799 25.1808 90.5909 25.1574 90.3842 25.1752C90.0874 25.1313 89.7842 25.1791 89.5158 25.3122C89.2474 25.4453 89.0268 25.6573 88.8842 25.9191C88.6213 26.6157 88.5055 27.3585 88.5442 28.1014V37.5446C88.4986 38.2923 88.6322 39.0402 88.9342 39.7268C89.0785 39.9745 89.2926 40.175 89.5502 40.3037C89.8078 40.4323 90.0977 40.4835 90.3842 40.4509C90.6658 40.4904 90.9527 40.4407 91.2041 40.3089C91.4555 40.1771 91.6585 39.9699 91.7842 39.7169C92.0261 39.019 92.1313 38.2816 92.0942 37.5446V35.5607H96.2342V37.2767C96.3561 38.895 95.9226 40.5066 95.0042 41.8495C94.1242 42.9407 92.6042 43.4763 90.4442 43.4763C88.2842 43.4763 86.5942 42.8811 85.6642 41.6611Z" fill="#111111"/>
<path d="M101.915 22.3978H106.655L110.655 43.2283H106.715L106.005 38.6258H102.685L101.885 43.1986H97.8849L101.915 22.3978ZM105.565 36.0071L104.305 27.6352L103.055 36.0071H105.565Z" fill="#111111"/>
<path d="M113.725 25.5323H110.485V22.3978H121.205V25.5323H118.005V43.1986H113.715L113.725 25.5323Z" fill="#111111"/>
<path d="M129.616 22.3978H137.746V24.5602H132.546V31.4343H136.766V33.4876H132.546V41.1155H137.796V43.1986H129.616V22.3978Z" fill="#444444"/>
<path d="M140.157 22.3978H142.157L148.157 36.2154V22.3978H150.597V43.2283H148.727L142.727 29.0239V43.1986H140.247L140.157 22.3978Z" fill="#444444"/>
<path d="M153.828 22.3978H161.948V24.5602H156.748V31.4343H161.008V33.4876H156.788V41.1155H162.008V43.1986H153.828V22.3978Z" fill="#444444"/>
<path d="M164.358 22.3978H168.578C170.241 22.265 171.897 22.7259 173.248 23.6972C174.248 24.5602 174.738 25.9687 174.738 27.9228C174.738 30.568 173.875 32.1848 172.148 32.7734L175.148 43.1986H172.308L169.558 33.438H167.288V43.1986H164.358V22.3978ZM168.358 31.3251C169.322 31.4176 170.285 31.1486 171.058 30.5713C171.372 30.2024 171.607 29.7736 171.748 29.3113C171.889 28.849 171.933 28.363 171.878 27.8832C171.898 27.2102 171.8 26.5389 171.588 25.8993C171.502 25.6635 171.369 25.4471 171.198 25.2631C171.026 25.0791 170.819 24.9312 170.588 24.828C169.939 24.5638 169.239 24.4453 168.538 24.4808H167.248V31.3648L168.358 31.3251Z" fill="#444444"/>
<path d="M178.679 41.6611C177.723 40.0607 177.28 38.21 177.409 36.3542V29.4107C177.374 28.0708 177.543 26.7333 177.909 25.443C178.198 24.473 178.811 23.6297 179.649 23.0525C180.66 22.4481 181.83 22.1579 183.009 22.2192C183.771 22.1473 184.54 22.2414 185.262 22.495C185.984 22.7486 186.642 23.1555 187.189 23.6873C188.148 25.0205 188.602 26.6472 188.469 28.2799V29.0536H185.719V28.4089C185.738 27.6377 185.677 26.8667 185.539 26.1076C185.448 25.6211 185.177 25.186 184.779 24.8875C184.26 24.5836 183.66 24.4419 183.059 24.4808C182.406 24.4254 181.756 24.6247 181.249 25.0363C180.834 25.4267 180.563 25.9435 180.479 26.5044C180.352 27.3215 180.295 28.1477 180.309 28.9743V36.7014C180.229 37.8756 180.432 39.0518 180.899 40.1335C181.17 40.4662 181.515 40.7329 181.906 40.9133C182.297 41.0937 182.725 41.183 183.156 41.1744C183.587 41.1658 184.011 41.0595 184.394 40.8636C184.778 40.6677 185.111 40.3874 185.369 40.0442C185.851 38.9001 186.059 37.661 185.979 36.4237V34.9556H183.319V32.9023H188.619V43.1986H186.809L186.519 40.808C186.29 41.6022 185.796 42.2962 185.119 42.777C184.442 43.2578 183.621 43.4973 182.789 43.4565C182.007 43.5249 181.22 43.3961 180.501 43.0823C179.783 42.7684 179.156 42.2795 178.679 41.6611Z" fill="#444444"/>
<path d="M194.699 35.8583L190.169 22.3978H192.889L196.099 32.4361L199.259 22.3978H202.009L197.509 35.8583V43.1986H194.709L194.699 35.8583Z" fill="#444444"/>
</g>

</symbol><symbol id="page-header__logo--mobile-cat" viewBox="0 0 34 38">
<g clip-path="url(#clip0_153_267)">
<path d="M6.07 20.72V18.46C12.7536 17.5423 19.4937 17.0979 26.24 17.13C26.24 17.73 26.24 18.34 26.18 18.95C28.0976 18.099 30.1128 17.4877 32.18 17.13C30.8625 13.722 28.4618 10.8412 25.3471 8.93087C22.2324 7.02052 18.5764 6.1864 14.9414 6.55683C11.3064 6.92727 7.89379 8.48172 5.22852 10.9811C2.56325 13.4804 0.792969 16.7863 0.190001 20.39L6.07 20.72Z" fill="#FDC305"/>
<path d="M27.24 24.23C26.08 25.51 25.85 25.43 25.85 27.68C25.85 28.59 25.85 32.58 25.85 36.86C28.1425 35.346 30.0245 33.2879 31.328 30.8694C32.6315 28.4509 33.3158 25.7474 33.32 23C33.3068 21.9591 33.1997 20.9216 33 19.9C30.9282 21.1295 28.9967 22.5814 27.24 24.23Z" fill="#FDC305"/>
<path d="M6.36 25.72C6.36 25.72 2.57 24.28 1.17 23.89C0.787067 23.7693 0.396097 23.6757 0 23.61C0.108395 26.496 0.965588 29.3041 2.48739 31.7586C4.00919 34.2131 6.14326 36.2296 8.68 37.61L6.36 25.72Z" fill="#FDC305"/>
<path d="M26.29 17.12C26.3307 11.5986 25.862 6.08528 24.89 0.65C24.89 0.65 24.75 -0.64 24 0.41C23.4109 1.65814 23.0067 2.98539 22.8 4.35C18.5418 4.07577 14.2675 4.18957 10.03 4.69C9.24 2 7.85 0.75 7.18 1C6.51 1.25 6.46 4.31 6.46 4.31L6.13 18.41C12.8113 17.506 19.548 17.0749 26.29 17.12Z" fill="#F06351"/>
<path d="M12.41 14C12.41 13.91 13.41 14.68 13.82 14.92C14.23 15.16 14.43 15.34 14.43 15.51C14.43 15.68 14.16 15.85 13.8 15.85C13.44 15.85 12.89 15.73 12.8 15.58H13.74H14.03C13.4207 15.1294 12.8757 14.5978 12.41 14Z" fill="black"/>
<path d="M19.89 14.11L18.8 15.44C18.8 15.5 18.63 15.79 18.98 15.74C19.3942 15.6783 19.8023 15.5812 20.2 15.45C20.31 15.45 20.27 15.26 20.09 15.28C19.91 15.3 19.4 15.33 19.09 15.39L19.93 14.13C19.93 14.13 20 14 19.89 14.11Z" fill="black"/>
<path d="M16.75 20.2C17.2135 19.9958 17.5967 19.6443 17.84 19.2C18.12 18.55 17.84 18.29 17.4 18.2C16.7979 18.0902 16.1765 18.2116 15.66 18.54C15.27 18.9 15.32 19.26 15.61 19.54C15.9613 19.8062 16.3442 20.0279 16.75 20.2Z" fill="black"/>
<path d="M16.35 21.45C16.2379 21.6785 16.0816 21.8825 15.89 22.05C15.6052 22.2791 15.2551 22.4122 14.89 22.43C14.3638 22.472 13.8406 22.3189 13.42 22C13.2222 21.8808 13.0436 21.7324 12.89 21.56C12.7895 21.4491 12.6669 21.3605 12.53 21.3C12.53 21.3 13.28 25.4 15.1 26.05C16.92 26.7 17.24 25.3 17.3 24.92C17.3601 23.7851 17.0742 22.6588 16.48 21.69C16.46 21.38 16.45 21.58 16.35 21.45Z" fill="#F06351"/>
<path d="M14.71 22.59C14.2453 22.5247 13.7989 22.3651 13.3982 22.1209C12.9975 21.8767 12.651 21.5531 12.38 21.17C12.3667 21.157 12.3561 21.1414 12.3489 21.1242C12.3417 21.1071 12.338 21.0886 12.338 21.07C12.338 21.0514 12.3417 21.0329 12.3489 21.0158C12.3561 20.9986 12.3667 20.983 12.38 20.97C12.393 20.9567 12.4086 20.9461 12.4258 20.9389C12.4429 20.9317 12.4614 20.928 12.48 20.928C12.4986 20.928 12.5171 20.9317 12.5342 20.9389C12.5514 20.9461 12.567 20.9567 12.58 20.97C13.0848 21.6642 13.843 22.1313 14.69 22.27C15.0217 22.245 15.3426 22.1413 15.6261 21.9674C15.9096 21.7934 16.1475 21.5544 16.32 21.27L16.46 21.08L16.56 21.29C16.56 21.29 16.93 22.05 17.56 22.09C18.19 22.13 18.61 21.68 19.17 20.81C19.183 20.7967 19.1986 20.7861 19.2158 20.7789C19.2329 20.7717 19.2514 20.768 19.27 20.768C19.2886 20.768 19.3071 20.7717 19.3242 20.7789C19.3414 20.7861 19.357 20.7967 19.37 20.81C19.4023 20.8306 19.4255 20.8629 19.4348 20.9C19.4441 20.9372 19.4388 20.9766 19.42 21.01C18.78 22.01 18.15 22.45 17.54 22.41C17.308 22.3763 17.0867 22.2904 16.8927 22.1587C16.6987 22.0271 16.5371 21.8531 16.42 21.65C16.2233 21.9245 15.9676 22.1514 15.6717 22.3141C15.3758 22.4767 15.0471 22.571 14.71 22.59Z" fill="black"/>
<path d="M26.24 18.92C24.4445 20.5437 22.7512 22.277 21.17 24.11C19.5986 25.9361 17.8238 27.5768 15.88 29C15.66 28.47 14.26 27.49 14.26 27.49C14.26 27.49 11.13 25.35 9.08 23.67C7.97414 22.7373 6.9287 21.7353 5.95 20.67L3.95 20.56C6.84018 24.7655 11.0702 27.8676 15.95 29.36C16.81 29.22 19.22 27.5 21.02 26.1C23.1389 24.2819 25.124 22.3134 26.96 20.21C27.4625 19.621 27.8493 18.9425 28.1 18.21C27 18.6 26.24 18.92 26.24 18.92Z" fill="#F06351"/>
</g>

</symbol><symbol id="page-header__logo--mobile-text" viewBox="0 0 101 18">
<g clip-path="url(#clip0_37030_445)">
<path d="M1.26449 16.5385C0.36955 15.2762 -0.0747041 13.7627 1.02073e-05 12.2308V5.84615C-0.108365 4.29774 0.308071 2.75746 1.18546 1.46154C2.05478 0.461538 3.39829 0 5.37403 0C7.34978 0 8.61425 0.461538 9.40455 1.30769C10.2626 2.37941 10.6846 3.72136 10.59 5.07692V6.61539H6.71754V4.84615C6.74881 4.32289 6.66808 3.799 6.48045 3.30769C6.38016 3.10938 6.2212 2.9448 6.02403 2.83513C5.82686 2.72547 5.60049 2.67572 5.37403 2.69231C4.82082 2.69231 4.42568 2.84615 4.26762 3.23077C4.08883 3.77733 4.00862 4.34988 4.03053 4.92308V13.1538C3.98879 13.71 4.0978 14.267 4.34665 14.7692C4.5047 15.1538 4.89985 15.3077 5.45306 15.3077C6.00627 15.3077 6.32239 15.1538 6.48045 14.7692C6.66013 14.2494 6.74049 13.7019 6.71754 13.1538V11.3077H10.59V12.8462C10.6704 14.2238 10.2508 15.5852 9.40455 16.6923C8.61425 17.6154 7.27075 18.0769 5.37403 18.0769C3.47732 18 2.05478 17.5385 1.26449 16.5385Z" fill="#111111"/>
<path d="M15.2527 0.23077H19.7574L23.0767 17.7692H19.4413L18.8091 14.0769H16.2011L15.5689 17.7692H11.8545L15.2527 0.23077ZM18.493 11.7692L17.5446 4.92308L16.5962 11.7692H18.493Z" fill="#111111"/>
<path d="M25.8427 3.15385H23.1557V0.23077H32.5602V3.07692H29.8732V17.7692H25.8427V3.15385Z" fill="#111111"/>
<path d="M39.7519 0.23077H46.7066V2.07692H42.2019V7.84615H45.8372V9.61539H42.2019V16.0769H46.7066V17.8462H39.6729V0.23077H39.7519Z" fill="#111111"/>
<path d="M48.7613 0.23077H50.5L55.6369 11.8462V0.23077H57.6917V17.7692H56.1111L50.8951 5.76923V17.7692H48.7613V0.23077Z" fill="#111111"/>
<path d="M60.0626 0.23077H67.0172V2.07692H62.5125V7.84615H66.1479V9.61539H62.5125V16.0769H67.0172V17.8462H60.0626V0.23077Z" fill="#111111"/>
<path d="M69.072 0.23077H72.7074C74.1375 0.134618 75.5587 0.514353 76.7379 1.30769C77.6072 2 78.0024 3.23077 78.0024 4.84616C78.0024 7.07692 77.2911 8.46154 75.7895 8.92308L78.3185 17.6923H75.8686L73.4977 9.46154H71.5219V17.6923H68.993V0.23077H69.072ZM72.5493 7.76923C73.364 7.83458 74.1761 7.61652 74.8412 7.15385C75.3154 6.76923 75.5524 6 75.5524 4.84616C75.5743 4.27296 75.4941 3.7004 75.3154 3.15385C75.1375 2.76166 74.832 2.4373 74.446 2.23077C73.9017 1.98934 73.3042 1.8836 72.7074 1.92308H71.601V7.69231H72.5493V7.76923Z" fill="#111111"/>
<path d="M81.1635 16.4615C80.342 15.1166 79.9564 13.5617 80.0571 12V6.15384C80.0376 5.0391 80.1705 3.92679 80.4522 2.84615C80.7167 2.03863 81.2437 1.33668 81.9538 0.84615C82.8362 0.337746 83.8542 0.0967275 84.8779 0.153842C86.5375 0.153842 87.723 0.538458 88.4342 1.38461C89.2524 2.50191 89.6438 3.86237 89.5407 5.23077V5.84615H87.1698V5.30769C87.1733 4.66346 87.1205 4.0201 87.0117 3.38461C86.9451 2.98303 86.7177 2.62348 86.3795 2.38461C85.9353 2.10082 85.4081 1.96578 84.8779 2C84.3112 1.96465 83.7504 2.12843 83.2973 2.46154C83.1114 2.61401 82.9595 2.80181 82.8507 3.01344C82.742 3.22507 82.6788 3.45608 82.6651 3.6923C82.5609 4.37999 82.5081 5.07411 82.507 5.76923V12.3077C82.4488 13.3038 82.6104 14.3006 82.9812 15.2308C83.2973 15.8462 83.9295 16.0769 84.8779 16.0769C85.2523 16.1223 85.6322 16.0589 85.9697 15.8947C86.3072 15.7304 86.5873 15.4727 86.7746 15.1538C87.1922 14.1811 87.3812 13.1299 87.3278 12.0769V10.8462H85.036V9.07692H89.6197V17.7692H88.0391L87.802 15.7692C87.5948 16.4395 87.1634 17.0231 86.5763 17.4273C85.9892 17.8315 85.2801 18.0331 84.5618 18C83.9088 18.0374 83.2564 17.9164 82.6633 17.6479C82.0702 17.3794 81.5548 16.9717 81.1635 16.4615Z" fill="#111111"/>
<path d="M94.6776 11.6154L90.8052 0.307692H93.1761L95.9421 8.76923L98.6291 0.307692H101L97.1276 11.6154V17.7692H94.7567V11.6154H94.6776Z" fill="#111111"/>
</g>

</symbol><symbol id="page-header__logo--tablet" viewBox="0 0 174 52">
<g clip-path="url(#clip0_3398_487)">
<path d="M51.5819 20.854C50.0969 17.265 47.7053 14.1312 44.6456 11.7649C41.5858 9.39869 37.9646 7.88262 34.143 7.36781C30.3214 6.85301 26.4328 7.35745 22.8646 8.83086C19.2965 10.3043 16.1735 12.6952 13.8068 15.7654C11.4402 18.8355 9.9125 22.4777 9.37609 26.329C8.83968 30.1802 9.31325 34.106 10.7496 37.7151C12.186 41.3242 14.535 44.4906 17.5625 46.8987C20.59 49.3068 24.1903 50.8726 28.0046 51.4399C27.505 49.6238 26.9967 47.6166 26.5488 45.4878C27.8519 46.3405 29.2235 47.0816 30.6492 47.7035C30.6492 47.7035 30.7526 49.5804 30.8904 51.6745C32.4308 51.7013 33.9698 51.5644 35.4818 51.2661C35.4427 51.0477 35.4427 50.8241 35.4818 50.6057C35.7316 48.9808 36.4208 46.0526 36.5586 44.167C37.552 43.2297 38.3948 42.1421 39.0567 40.9434L39.005 41.3257C38.5312 45.0273 37.5406 48.9808 36.9376 50.0757C36.7424 50.4381 36.5021 50.7739 36.2226 51.0749C39.3408 50.3371 42.2626 48.924 44.7855 46.9336C47.3083 44.9433 49.3718 42.4233 50.8329 39.5484C52.2941 36.6735 53.1179 33.5124 53.2472 30.2843C53.3765 27.0563 52.8083 23.8385 51.5819 20.854ZM50.3156 24.1472C49.9366 24.5208 49.1527 24.7728 49.0235 23.6432C48.8942 22.5136 48.8598 21.7229 48.8598 21.7229C48.8598 21.7229 47.1972 18.7425 46.577 18.7078C45.9568 18.673 41.5549 21.7229 40.3919 23.0524C39.3841 24.1733 39.1859 24.0951 39.1859 26.0675C39.1859 27.5534 39.3755 33.1666 39.2721 37.459L32.2514 39.3446C30.0448 39.9834 27.8007 40.4825 25.5323 40.8391L24.6709 35.7733H24.5503L22.3364 24.3297C22.3364 24.3297 19.0543 23.0784 17.8483 22.7396C17.2821 22.4897 16.6568 22.4084 16.0462 22.5054C15.4356 22.6024 14.8653 22.8736 14.4026 23.287C13.9306 23.7039 13.5531 24.2185 13.296 24.7958C13.0388 25.373 12.908 25.9994 12.9124 26.6323C13.0945 27.0362 13.2331 27.4585 13.3258 27.8922C13.3689 28.3093 12.2921 28.2659 11.603 28.2659C10.9138 28.2659 10.8105 27.0146 11.3532 25.5462C11.7766 24.417 12.3013 23.3292 12.921 22.2964C13.387 21.3738 13.9881 20.5273 14.7041 19.7852C14.7041 19.7852 14.8247 19.4898 15.7809 19.5767C16.7371 19.6636 22.0521 19.9503 22.0521 19.9503L22.0952 17.9779C27.8722 17.1733 33.6987 16.7842 39.5305 16.8135C39.5305 17.3436 39.5305 17.8736 39.5305 18.4037C41.7394 17.3869 44.118 16.7974 46.5425 16.6658C46.6723 16.6625 46.8008 16.6917 46.9166 16.7509C47.0323 16.81 47.1317 16.8973 47.2058 17.0047C47.4987 17.3783 49.2819 19.6115 49.4886 19.933C50.0677 20.7677 50.5942 21.6383 51.065 22.5397C50.9037 23.1104 50.6505 23.6505 50.3156 24.1385V24.1472Z" fill="#FDC305"/>
<path d="M48.6363 18.8294C49.0411 19.3508 49.3943 19.8113 49.4977 19.9503C50.0768 20.7851 50.6033 21.6557 51.0741 22.5571C50.9102 23.1091 50.6601 23.6312 50.3333 24.1038C49.9543 24.4774 49.1704 24.7294 49.0411 23.5998C48.9119 22.4702 48.8602 21.7229 48.8602 21.7229C48.8602 21.7229 47.1977 18.7425 46.5775 18.7078C45.9572 18.673 41.5553 21.7229 40.3924 23.0524C39.3845 24.1733 39.1864 24.0951 39.1864 26.0675C39.1864 27.3709 39.3328 31.8458 39.2984 35.8254C40.8576 35.9992 43.149 36.4337 43.8381 37.459C43.8381 37.459 43.5883 31.2202 50.5659 34.4873C50.5659 34.4873 50.8071 25.9806 60.4378 28.1616C57.1639 24.2844 53.1505 21.1107 48.6363 18.8294Z" fill="#F06351"/>
<path d="M39.5654 16.8135C39.6005 11.9987 39.1968 7.1907 38.3594 2.45035C38.3594 2.45035 38.2302 1.32075 37.61 2.24181C37.0982 3.34291 36.7499 4.51402 36.5763 5.71747C32.8938 5.47914 29.1975 5.57802 25.5328 6.0129C24.8264 3.62338 23.6204 2.53724 23.0432 2.82398C22.4661 3.11072 22.3972 5.67403 22.3972 5.67403L22.1129 17.9779C27.8956 17.1725 33.7279 16.7834 39.5654 16.8135Z" fill="#F06351"/>
<path d="M39.0651 40.9434C39.1771 40.0136 39.2374 38.7798 39.2719 37.4156L32.2516 39.3011C30.0459 39.9546 27.8019 40.4682 25.5327 40.8391L26.4889 45.1837C26.4889 45.2793 26.4889 45.3748 26.5492 45.4704C27.8522 46.3231 29.2238 47.0642 30.6494 47.6862C32.7328 46.6815 34.7171 45.4799 36.5757 44.0975V44.1497C37.5647 43.217 38.4044 42.1354 39.0651 40.9434Z" fill="#E55645"/>
<path d="M27.5657 14.0938C27.5227 14.0069 28.4271 14.6847 28.7803 14.8932C29.1334 15.1018 29.3057 15.2582 29.3057 15.4059C29.3057 15.5536 29.0818 15.7013 28.7717 15.7013C28.4616 15.7013 27.9792 15.5971 27.9103 15.4754C27.8414 15.3538 28.4271 15.4754 28.72 15.4754H28.9698C28.4395 15.084 27.9667 14.6189 27.5657 14.0938Z" fill="black"/>
<path d="M34.0264 14.1894C34.0264 14.1894 33.165 15.3016 33.0875 15.3538C33.0099 15.4059 32.941 15.6492 33.2511 15.6057C33.6071 15.5521 33.9585 15.4708 34.302 15.3624C34.3968 15.3103 34.3623 15.1887 34.1986 15.206C34.035 15.2234 33.6129 15.2495 33.3373 15.3016L34.0694 14.1981C34.0694 14.1981 34.0953 14.0938 34.0264 14.1894Z" fill="black"/>
<path d="M31.3215 19.4985C31.7208 19.321 32.0508 19.0156 32.2604 18.6296C32.5016 18.0561 32.2604 17.8389 31.8814 17.7607C31.36 17.6647 30.8218 17.7702 30.374 18.0561C30.038 18.3776 30.0811 18.6904 30.374 18.925C30.6649 19.1552 30.9832 19.3478 31.3215 19.4985Z" fill="black"/>
<path d="M31.0113 20.5933C30.9124 20.7904 30.778 20.9672 30.615 21.1147C30.3697 21.3138 30.0682 21.4294 29.7537 21.4449C29.2794 21.4918 28.8052 21.3552 28.4271 21.0625C28.2535 20.9601 28.099 20.8278 27.9706 20.6715C27.8844 20.5769 27.7785 20.5027 27.6605 20.4543C27.6605 20.4543 28.3065 24.0255 29.8743 24.599C31.442 25.1725 31.7348 23.9387 31.7779 23.6085C31.8304 22.6196 31.5841 21.6379 31.0716 20.7932C31.0716 20.5325 31.0544 20.7063 31.0113 20.5933Z" fill="#F06351"/>
<path d="M29.5469 21.5839C29.1438 21.5254 28.7566 21.3852 28.4087 21.1716C28.0608 20.9581 27.7594 20.6756 27.5226 20.3413C27.5015 20.3174 27.4897 20.2865 27.4897 20.2544C27.4897 20.2224 27.5015 20.1915 27.5226 20.1676C27.5339 20.156 27.5473 20.1468 27.5621 20.1405C27.5769 20.1343 27.5927 20.131 27.6088 20.131C27.6248 20.131 27.6407 20.1343 27.6555 20.1405C27.6703 20.1468 27.6837 20.156 27.6949 20.1676C27.9081 20.4692 28.1785 20.7252 28.4905 20.9206C28.8025 21.116 29.1499 21.2469 29.5124 21.3058C29.7993 21.2841 30.0769 21.194 30.3225 21.0429C30.5681 20.8919 30.7746 20.6842 30.9251 20.4369L31.0457 20.2718L31.1319 20.463C31.1319 20.463 31.4592 21.1234 31.9932 21.1581C32.5273 21.1929 32.9063 20.7932 33.3973 20.0372C33.4156 20.0096 33.444 19.9904 33.4763 19.9838C33.5086 19.9773 33.5422 19.984 33.5696 20.0025C33.597 20.0209 33.616 20.0496 33.6225 20.0822C33.629 20.1147 33.6223 20.1486 33.604 20.1762C33.0298 21.0278 32.4871 21.4362 31.976 21.4014C31.7785 21.375 31.5893 21.3043 31.4224 21.1946C31.2554 21.0848 31.115 20.9388 31.0113 20.7671C30.8427 21.0045 30.6238 21.201 30.3705 21.3423C30.1172 21.4836 29.8358 21.5661 29.5469 21.5839Z" fill="black"/>
<path d="M31.2353 33.2795C33.0192 33.2795 34.4655 31.8207 34.4655 30.0211C34.4655 28.2215 33.0192 26.7626 31.2353 26.7626C29.4513 26.7626 28.0051 28.2215 28.0051 30.0211C28.0051 31.8207 29.4513 33.2795 31.2353 33.2795Z" fill="#FDC305"/>
<path d="M35.5163 27.3709L32.8202 28.5092L33.8108 23.6172L27.3504 32.0978L30.0465 30.9595L29.0559 35.8602L35.5163 27.3709ZM29.1507 30.6988L32.734 25.998L32.0363 29.4737L33.7591 28.7611L30.1499 33.4707L30.8476 29.995L29.1507 30.6988Z" fill="#111111"/>
<path d="M27.9447 29.4215C28.4775 29.4215 28.9095 28.9858 28.9095 28.4483C28.9095 27.9109 28.4775 27.4751 27.9447 27.4751C27.4119 27.4751 26.9799 27.9109 26.9799 28.4483C26.9799 28.9858 27.4119 29.4215 27.9447 29.4215Z" fill="#111111"/>
<path d="M33.5612 32.9493C33.9371 32.9493 34.2417 32.642 34.2417 32.2629C34.2417 31.8838 33.9371 31.5764 33.5612 31.5764C33.1854 31.5764 32.8807 31.8838 32.8807 32.2629C32.8807 32.642 33.1854 32.9493 33.5612 32.9493Z" fill="#111111"/>
<path d="M34.3882 31.0638C34.5547 31.0638 34.6897 30.9276 34.6897 30.7597C34.6897 30.5917 34.5547 30.4555 34.3882 30.4555C34.2217 30.4555 34.0867 30.5917 34.0867 30.7597C34.0867 30.9276 34.2217 31.0638 34.3882 31.0638Z" fill="#111111"/>
<path d="M39.5224 18.3863C37.9674 19.8002 36.5029 21.3123 35.1377 22.9133C33.7778 24.5028 32.2433 25.9312 30.5635 27.171C30.374 26.7105 29.1594 25.8503 29.1594 25.8503C29.1594 25.8503 26.4545 23.9821 24.6799 22.5136C23.7207 21.7077 22.8169 20.8368 21.9751 19.9069L20.2522 19.8113C22.7392 23.4757 26.3826 26.183 30.5893 27.4925C31.3302 27.3709 33.4148 25.8677 34.974 24.6425C36.8187 23.0601 38.5461 21.3437 40.1426 19.5072C40.5717 18.9928 40.9044 18.4039 41.1246 17.7693C40.1426 18.0995 39.5224 18.3863 39.5224 18.3863Z" fill="#F06351"/>
<path d="M22.3368 24.3297C22.3368 24.3297 19.0548 23.0784 17.8488 22.7396C17.2825 22.4897 16.6572 22.4084 16.0466 22.5054C15.4361 22.6024 14.8658 22.8736 14.4031 23.287C13.931 23.7039 13.5536 24.2185 13.2964 24.7958C13.0393 25.373 12.9084 25.9994 12.9128 26.6323C13.0949 27.0362 13.2335 27.4585 13.3263 27.8922C13.3694 28.3093 12.2926 28.2659 11.6034 28.2659C10.9143 28.2659 10.8109 27.0146 11.3536 25.5462C11.777 24.417 12.3018 23.3292 12.9214 22.2964C8.22664 24.7641 0 30.4642 0 30.4642C2.35316 30.3211 4.71429 30.3909 7.0551 30.6728C11.5776 31.1333 11.3622 34.7306 11.3622 34.7306C12.9529 34.2883 14.574 33.9659 16.2121 33.7661C18.0383 33.6445 18.1675 35.6082 18.1675 35.6082L18.6241 38.9622C19.3173 38.2057 20.0819 37.5189 20.9069 36.9116C21.9703 36.0529 23.3243 35.6476 24.6799 35.782L22.3368 24.3297Z" fill="#F06351"/>
<path d="M73.7899 36.4945C72.9025 35.1681 72.4782 33.5814 72.584 31.9848V25.468C72.472 23.8596 72.8899 22.2589 73.7727 20.9148C74.5709 19.8779 75.9348 19.3624 77.8643 19.3682C79.7938 19.374 81.1002 19.8287 81.7836 20.7324C82.6168 21.8522 83.0234 23.2368 82.9292 24.6338V26.1631H79.3631V24.5035C79.3583 24.0668 79.3208 23.6311 79.2511 23.2001C79.208 22.8881 79.066 22.5985 78.8462 22.3746C78.7106 22.2573 78.5531 22.1684 78.3831 22.1132C78.213 22.058 78.0337 22.0376 77.8557 22.0531C77.6 22.0146 77.3388 22.0565 77.1076 22.1731C76.8764 22.2898 76.6864 22.4754 76.5636 22.7048C76.3371 23.315 76.2374 23.9657 76.2707 24.6164V32.8885C76.2314 33.5435 76.3465 34.1986 76.6066 34.8001C76.7309 35.0171 76.9153 35.1927 77.1372 35.3054C77.3591 35.4181 77.6088 35.463 77.8557 35.4344C78.0982 35.469 78.3454 35.4255 78.5619 35.31C78.7785 35.1946 78.9533 35.0131 79.0616 34.7914C79.27 34.1801 79.3606 33.5342 79.3286 32.8885V31.1507H82.8948V32.6539C82.9997 34.0715 82.6263 35.4832 81.8353 36.6596C81.0772 37.6154 79.7679 38.0846 77.9073 38.0846C76.0467 38.0846 74.591 37.5633 73.7899 36.4945Z" fill="#111111"/>
<path d="M87.788 19.6201H91.871L95.3166 37.8674H91.9227L91.3111 33.8356H88.4513L87.7622 37.8413H84.3167L87.788 19.6201ZM90.9321 31.5417L89.8468 24.208L88.77 31.5417H90.9321Z" fill="#111111"/>
<path d="M97.9615 22.3659H95.1707V19.6201H104.405V22.3659H101.648V37.8413H97.9529L97.9615 22.3659Z" fill="#111111"/>
<path d="M111.65 19.6201H118.653V21.5144H114.174V27.536H117.809V29.3346H114.174V36.0166H118.696V37.8413H111.65V19.6201Z" fill="#444444"/>
<path d="M120.729 19.6201H122.452L127.62 31.7241V19.6201H129.722V37.8674H128.111L122.943 25.4245V37.8413H120.807L120.729 19.6201Z" fill="#444444"/>
<path d="M132.505 19.6201H139.499V21.5144H135.02V27.536H138.69V29.3346H135.055V36.0166H139.551V37.8413H132.505V19.6201Z" fill="#444444"/>
<path d="M141.576 19.6201H145.211C146.643 19.5039 148.07 19.9075 149.234 20.7584C150.095 21.5144 150.517 22.7482 150.517 24.46C150.517 26.7771 149.773 28.1935 148.286 28.709L150.87 37.8413H148.424L146.055 29.2912H144.1V37.8413H141.576V19.6201ZM145.021 27.4404C145.851 27.5214 146.681 27.2858 147.347 26.78C147.618 26.4569 147.82 26.0812 147.942 25.6763C148.063 25.2713 148.101 24.8456 148.053 24.4253C148.071 23.8357 147.986 23.2477 147.804 22.6874C147.73 22.4808 147.615 22.2913 147.467 22.1301C147.319 21.969 147.141 21.8393 146.942 21.749C146.383 21.5176 145.78 21.4137 145.176 21.4449H144.065V27.4751L145.021 27.4404Z" fill="#444444"/>
<path d="M153.911 36.4945C153.088 35.0926 152.707 33.4714 152.817 31.8458V25.7634C152.788 24.5896 152.933 23.418 153.248 22.2877C153.497 21.438 154.026 20.6992 154.747 20.1936C155.618 19.6642 156.626 19.41 157.641 19.4637C158.298 19.4007 158.961 19.4832 159.582 19.7053C160.204 19.9274 160.771 20.2839 161.242 20.7497C162.068 21.9176 162.459 23.3426 162.344 24.7728V25.4506H159.976V24.8858C159.992 24.2103 159.94 23.5348 159.821 22.8699C159.742 22.4437 159.509 22.0626 159.166 21.8011C158.719 21.5349 158.202 21.4108 157.684 21.4449C157.122 21.3963 156.562 21.5709 156.125 21.9315C155.768 22.2734 155.534 22.7261 155.462 23.2175C155.353 23.9332 155.304 24.657 155.315 25.3811V32.1499C155.247 33.1785 155.421 34.2088 155.824 35.1564C156.057 35.4478 156.354 35.6814 156.691 35.8395C157.028 35.9975 157.396 36.0757 157.768 36.0682C158.139 36.0606 158.504 35.9675 158.835 35.7959C159.165 35.6243 159.452 35.3788 159.674 35.0782C160.089 34.076 160.269 32.9905 160.2 31.9066V30.6206H157.908V28.822H162.474V37.8413H160.914L160.665 35.7472C160.467 36.4429 160.042 37.0508 159.459 37.472C158.876 37.8933 158.168 38.103 157.452 38.0672C156.778 38.1272 156.1 38.0144 155.481 37.7395C154.862 37.4645 154.322 37.0363 153.911 36.4945Z" fill="#444444"/>
<path d="M167.711 31.4113L163.809 19.6201H166.152L168.917 28.4136L171.639 19.6201H174.008L170.132 31.4113V37.8413H167.72L167.711 31.4113Z" fill="#444444"/>
</g>

</symbol><symbol id="social--facebook" viewBox="0 0 15 29">
<path d="M14 0.75H10.5C8.95292 0.75 7.46919 1.46024 6.37523 2.72447C5.28127 3.98871 4.66669 5.70337 4.66669 7.49127V11.536H1.16669V16.929H4.66669V27.7151H9.33335V16.929H12.8334L14 11.536H9.33335V7.49127C9.33335 7.13369 9.45627 6.79076 9.67506 6.53791C9.89386 6.28506 10.1906 6.14302 10.5 6.14302H14V0.75Z" stroke="currentColor" stroke-width="1.1" stroke-linecap="round" stroke-linejoin="round"/>
</symbol><symbol id="social--instagram" viewBox="0 0 23 23">
<path d="M11.3877 0C13.3044 0 14.8691 0.0224609 16.082 0.0673828C17.1152 0.112305 18.0361 0.291992 18.8447 0.606445C19.6234 0.905924 20.2972 1.34017 20.8662 1.90918C21.4352 2.47819 21.8695 3.15202 22.1689 3.93066C22.4834 4.73926 22.6631 5.66016 22.708 6.69336C22.7529 7.90625 22.7754 9.47103 22.7754 11.3877C22.7754 13.3044 22.7529 14.8691 22.708 16.082C22.6631 17.1152 22.4834 18.0361 22.1689 18.8447C21.8695 19.6234 21.4352 20.2972 20.8662 20.8662C20.2972 21.4352 19.6234 21.8695 18.8447 22.1689C18.0361 22.4834 17.1152 22.6631 16.082 22.708C14.8691 22.7529 13.3044 22.7754 11.3877 22.7754C9.47103 22.7754 7.90625 22.7529 6.69336 22.708C5.66016 22.6631 4.73926 22.4834 3.93066 22.1689C3.15202 21.8695 2.47819 21.4352 1.90918 20.8662C1.34017 20.2972 0.905924 19.6234 0.606445 18.8447C0.291992 18.0361 0.112305 17.1152 0.0673828 16.082C0.0224609 14.8691 0 13.3044 0 11.3877C0 9.47103 0.0224609 7.90625 0.0673828 6.69336C0.112305 5.66016 0.291992 4.73926 0.606445 3.93066C0.905924 3.15202 1.34017 2.47819 1.90918 1.90918C2.47819 1.34017 3.15202 0.905924 3.93066 0.606445C4.73926 0.291992 5.66016 0.112305 6.69336 0.0673828C7.90625 0.0224609 9.47103 0 11.3877 0ZM11.3877 1.48242C9.39616 1.48242 7.77148 1.50488 6.51367 1.5498C5.70508 1.57975 4.95638 1.72201 4.26758 1.97656C3.18945 2.42578 2.42578 3.18945 1.97656 4.26758C1.72201 4.95638 1.57975 5.70508 1.5498 6.51367C1.50488 7.77148 1.48242 9.39616 1.48242 11.3877C1.48242 13.3792 1.50488 15.0039 1.5498 16.2617C1.57975 17.0703 1.72201 17.819 1.97656 18.5078C2.42578 19.5859 3.18945 20.3496 4.26758 20.7988C4.95638 21.0534 5.70508 21.1956 6.51367 21.2256C7.77148 21.2705 9.39616 21.293 11.3877 21.293C13.3792 21.293 15.0039 21.2705 16.2617 21.2256C17.0703 21.1956 17.819 21.0534 18.5078 20.7988C19.5859 20.3496 20.3496 19.5859 20.7988 18.5078C21.0534 17.819 21.1956 17.0703 21.2256 16.2617C21.2705 15.0039 21.293 13.3792 21.293 11.3877C21.293 9.39616 21.2705 7.77148 21.2256 6.51367C21.1956 5.70508 21.0534 4.95638 20.7988 4.26758C20.3496 3.18945 19.5859 2.42578 18.5078 1.97656C17.819 1.72201 17.0703 1.57975 16.2617 1.5498C15.0039 1.50488 13.3792 1.48242 11.3877 1.48242ZM11.3877 15.9473C12.6455 15.9473 13.7199 15.5018 14.6108 14.6108C15.5018 13.7199 15.9473 12.6455 15.9473 11.3877C15.9473 10.1299 15.5018 9.0555 14.6108 8.16455C13.7199 7.2736 12.6455 6.82812 11.3877 6.82812C10.1299 6.82812 9.0555 7.2736 8.16455 8.16455C7.2736 9.0555 6.82812 10.1299 6.82812 11.3877C6.82812 12.6455 7.2736 13.7199 8.16455 14.6108C9.0555 15.5018 10.1299 15.9473 11.3877 15.9473ZM11.3877 5.54785C13.0049 5.54785 14.3825 6.11686 15.5205 7.25488C16.6585 8.3929 17.2275 9.77051 17.2275 11.3877C17.2275 13.0049 16.6585 14.3825 15.5205 15.5205C14.3825 16.6585 13.0049 17.2275 11.3877 17.2275C9.77051 17.2275 8.3929 16.6585 7.25488 15.5205C6.11686 14.3825 5.54785 13.0049 5.54785 11.3877C5.54785 9.77051 6.11686 8.3929 7.25488 7.25488C8.3929 6.11686 9.77051 5.54785 11.3877 5.54785ZM18.8447 5.32324C18.8447 5.69759 18.71 6.01579 18.4404 6.27783C18.1709 6.53988 17.8415 6.6709 17.4521 6.6709C17.0778 6.6709 16.7596 6.53988 16.4976 6.27783C16.2355 6.01579 16.1045 5.69759 16.1045 5.32324C16.1045 4.93392 16.2355 4.60449 16.4976 4.33496C16.7596 4.06543 17.0778 3.93066 17.4521 3.93066C17.8265 3.93066 18.1522 4.06917 18.4292 4.34619C18.7062 4.62321 18.8447 4.94889 18.8447 5.32324Z" fill="currentColor"/>
</symbol><symbol id="social--vk" viewBox="0 0 29 18">
<path d="M0.0914307 2.48964C0.0914307 1.63461 0.643326 1.17356 1.74712 1.1065L6.00052 1.13165C6.28599 1.13165 6.47629 1.25739 6.57145 1.50887C7.00916 2.76626 7.4992 3.85182 8.04158 4.76552C8.58397 5.67923 9.29287 6.73125 10.1683 7.92159C10.2444 8.07248 10.3681 8.14792 10.5394 8.14792C10.6726 8.14792 10.7773 8.08924 10.8534 7.97189L10.939 7.69526L10.9676 3.34467C10.9676 3.04289 10.8867 2.84171 10.7249 2.74112C10.5632 2.64052 10.2634 2.56508 9.82573 2.51478C9.48318 2.46449 9.3119 2.28007 9.3119 1.96153C9.3119 1.89447 9.32141 1.84417 9.34044 1.81064C9.74009 0.720899 10.8819 0.176027 12.766 0.176027L14.3646 0.150879C15.0878 0.150879 15.6872 0.310149 16.163 0.62869C16.6388 0.94723 16.8767 1.45019 16.8767 2.13757V7.84615C17.0099 7.92997 17.1336 7.97189 17.2478 7.97189C17.5332 7.97189 17.7806 7.821 17.99 7.51922C20.0834 4.93737 21.2157 3.21054 21.387 2.33875C21.387 2.32198 21.406 2.28007 21.4441 2.21301C21.5773 1.96153 21.7962 1.74358 22.1007 1.55916C22.4051 1.37474 22.6716 1.24901 22.9 1.18194C22.9761 1.14841 23.0617 1.13165 23.1569 1.13165H27.5816L27.867 1.1568C28.2476 1.1568 28.5426 1.31607 28.752 1.63461C28.8281 1.7352 28.8804 1.84417 28.909 1.96153C28.9375 2.07889 28.9565 2.19624 28.966 2.3136C28.9756 2.43096 28.9803 2.49802 28.9803 2.51478V2.69082C28.8471 3.3782 28.5093 4.11168 27.9669 4.89126C27.4245 5.67085 26.7347 6.51331 25.8973 7.41863C25.06 8.32396 24.5366 8.91912 24.3273 9.20413C24.156 9.40532 24.0704 9.58974 24.0704 9.75739C24.0704 9.89151 24.1465 10.0424 24.2987 10.2101L28.4665 14.8373C28.6949 15.1055 28.809 15.3989 28.809 15.7174C28.809 16.103 28.6378 16.4216 28.2952 16.6731C27.9527 16.9245 27.5435 17.0671 27.0677 17.1006L26.5824 17.1257H22.2434C22.2244 17.1257 22.1863 17.1299 22.1292 17.1383C22.0721 17.1467 22.034 17.1509 22.015 17.1509C21.5963 17.1509 21.2062 16.9916 20.8446 16.6731C20.7114 16.5389 19.8169 15.5498 18.1613 13.7056C18.0661 13.5883 17.9329 13.4793 17.7616 13.3787C17.6855 13.6469 17.5856 14.0325 17.4619 14.5355C17.3382 15.0385 17.2478 15.3989 17.1907 15.6169L17.105 16.0444C16.9147 16.6312 16.5151 16.9832 15.9061 17.1006L15.5065 17.1257H12.7089C11.1293 17.1257 9.55454 16.4887 7.98449 15.2145C6.41444 13.9403 5.0014 12.2931 3.74536 10.2729C2.48932 8.2527 1.31892 5.90137 0.234162 3.21893C0.139008 3.00098 0.0914307 2.75788 0.0914307 2.48964ZM17.2478 9.00295C16.8481 9.00295 16.4865 8.90655 16.163 8.71375C15.8395 8.52095 15.6777 8.2569 15.6777 7.92159V2.13757C15.6777 1.80226 15.5826 1.56335 15.3923 1.42085C15.202 1.27834 14.8689 1.20709 14.3931 1.20709L12.766 1.25739C11.9477 1.25739 11.3292 1.38313 10.9105 1.63461C11.7479 1.98668 12.1665 2.5567 12.1665 3.34467V7.7707C12.1285 8.18983 11.9382 8.53771 11.5956 8.81434C11.253 9.09097 10.8724 9.22928 10.4538 9.22928C9.88282 9.22928 9.44511 8.98619 9.14062 8.49999C7.65621 6.52169 6.55242 4.64398 5.82924 2.86686L5.57233 2.21301L1.77566 2.18786C1.52826 2.18786 1.39029 2.20044 1.36174 2.22558C1.3332 2.25073 1.31892 2.32198 1.31892 2.43934C1.31892 2.59023 1.33795 2.7495 1.37602 2.91715L1.97549 4.32544C3.57408 7.9635 5.31065 10.8304 7.18519 12.926C9.05974 15.0217 10.901 16.0695 12.7089 16.0695H15.5635C15.6777 16.0695 15.7634 16.0402 15.8205 15.9815C15.8776 15.9228 15.9251 15.8097 15.9632 15.642L16.0203 15.3905L16.5627 13.1775C16.7149 12.8757 16.8481 12.6745 16.9623 12.574C17.1717 12.3895 17.4191 12.2973 17.7045 12.2973C18.1613 12.2973 18.6275 12.5404 19.1033 13.0266L21.5297 15.7426C21.682 15.9605 21.8437 16.0695 22.015 16.0695H26.7252C27.2961 16.0695 27.5816 15.9438 27.5816 15.6923C27.5816 15.6085 27.553 15.5246 27.4959 15.4408L23.3567 10.889C23.0332 10.537 22.8714 10.1598 22.8714 9.75739C22.8714 9.35502 23.0237 8.96942 23.3281 8.60058C23.5755 8.26528 24.0561 7.70783 24.7697 6.92825C25.4834 6.14866 26.1067 5.41937 26.6395 4.74038C27.1724 4.06138 27.5245 3.44526 27.6957 2.892L27.7814 2.56508C27.7623 2.53155 27.7528 2.47706 27.7528 2.40162C27.7528 2.32617 27.7433 2.2633 27.7243 2.21301H23.2425C22.957 2.3136 22.7287 2.46449 22.5574 2.66567L22.3861 3.14348C21.9103 4.30029 20.6638 6.08579 18.6465 8.49999C18.2469 8.8353 17.7806 9.00295 17.2478 9.00295Z" fill="currentColor"/>
</symbol><symbol id="weight__arrow" viewBox="0 0 24 12">
<line y1="6" x2="18" y2="6" stroke="black" stroke-width="2"/>
<path d="M24 6L17.25 11.1962L17.25 0.803848L24 6Z" fill="black"/>
</symbol></svg>