<svg width="108" height="114" viewBox="0 0 108 114" fill="none" xmlns="http://www.w3.org/2000/svg">
<g filter="url(#filter0_d_2403_488)">
<circle cx="54" cy="56" r="50" fill="#68B738"/>
<g clip-path="url(#clip0_2403_488)">
<path d="M73.84 0H73.46C72.818 0.362938 72.307 0.919413 72 1.59C71.4377 2.67211 71.0047 3.81665 70.71 5C70.6468 5.35582 70.4671 5.68054 70.1992 5.92311C69.9313 6.16567 69.5903 6.31232 69.23 6.34C68.1279 6.52999 67.0837 6.96931 66.1773 7.62443C65.2709 8.27955 64.5262 9.13313 64 10.12C63.2766 11.4013 62.6579 12.739 62.15 14.12C60.73 17.8 59.64 21.6 58.3 25.31C57.67 27 57.64 27 55.74 27C53.47 27 53.63 26.65 53.6 29.15C53.6 29.94 53.84 30.34 54.68 30.3C54.94 30.3 55.33 30.17 55.43 30.51C55.53 30.85 55.19 31 54.99 31.2C53.8043 32.4036 52.3038 33.2492 50.66 33.64C48.76 34.15 46.82 34.55 44.97 35.17C40.22 36.76 35.83 38.98 32.41 42.74C30.4103 45.0754 28.8088 47.7242 27.67 50.58C24 59.22 22.22 68.32 20.84 77.51C20.19 81.82 19.73 86.15 19.38 90.51C19.2 92.65 19 94.82 19 97H52.33C52.3854 96.5599 52.3051 96.1133 52.1 95.72C51.7794 94.9221 51.2586 94.2204 50.5877 93.6827C49.9167 93.1449 49.1185 92.7892 48.27 92.65C47.57 92.49 47.49 92.28 47.92 91.73C48.6214 90.7939 49.159 89.7458 49.51 88.63C51.14 83.82 51.77 78.8 52.56 73.83C53.0063 70.0338 54.1739 66.3579 56 63C57.4244 60.5284 59.3243 58.3634 61.59 56.63C62.42 56 62.45 56 62.59 57.07C62.69 57.78 62.71 58.51 62.76 59.23C63.0601 63.9544 62.9999 68.6948 62.58 73.41C62.2024 77.0649 62.1522 80.7462 62.43 84.41C62.8275 88.6636 63.5869 92.8755 64.7 97H78C77.8264 95.9175 77.328 94.9132 76.5708 94.1203C75.8136 93.3274 74.8334 92.7833 73.76 92.56C72.5066 92.3608 71.2252 92.429 70 92.76C69.4 92.9 69.15 92.76 69.1 92.11C68.6863 86.8159 69.0229 81.4899 70.1 76.29C71.4338 70.287 72.4552 64.2189 73.16 58.11C73.4224 55.643 74.1991 53.2584 75.44 51.11C76.63 48.99 77.67 46.79 78.84 44.66C79.3045 43.8855 79.5841 43.0143 79.657 42.1141C79.7298 41.2139 79.594 40.3091 79.26 39.47C78.99 38.76 78.73 38.04 78.4 37.36C77.4 35.41 76.4 33.48 75.48 31.51C74.99 30.51 75.1 30.39 76.19 30.36C77.82 30.36 77.82 30.36 77.85 28.72C77.85 28.5 77.85 28.28 77.85 28.06C77.85 27.37 77.59 26.99 76.85 27.06C76.35 27.06 75.85 27.06 75.33 27.06C74.64 27.06 74.44 26.77 74.61 26.06C74.9473 24.9058 75.611 23.8737 76.5211 23.0877C77.4312 22.3018 78.549 21.7956 79.74 21.63C81.9557 21.4379 84.1878 21.5829 86.36 22.06C86.6107 22.139 86.8823 22.1161 87.1162 21.9963C87.3502 21.8766 87.5275 21.6695 87.61 21.42C88.01 20.42 88.45 19.42 88.9 18.42C89.002 18.2426 89.0471 18.0381 89.0292 17.8343C89.0113 17.6304 88.9313 17.437 88.8 17.28C85.6 13.22 82.13 9.43 77.4 7C77.1715 6.90163 76.9712 6.7476 76.8175 6.55196C76.6638 6.35633 76.5615 6.12531 76.52 5.88C76.2523 4.45051 75.8264 3.05525 75.25 1.72C74.9795 1.00861 74.4845 0.404782 73.84 0V0Z" fill="black"/>
</g>
</g>
<defs>
<filter id="filter0_d_2403_488" x="0" y="0" width="108" height="114" filterUnits="userSpaceOnUse" color-interpolation-filters="sRGB">
<feFlood flood-opacity="0" result="BackgroundImageFix"/>
<feColorMatrix in="SourceAlpha" type="matrix" values="0 0 0 0 0 0 0 0 0 0 0 0 0 0 0 0 0 0 127 0" result="hardAlpha"/>
<feOffset dy="4"/>
<feGaussianBlur stdDeviation="2"/>
<feComposite in2="hardAlpha" operator="out"/>
<feColorMatrix type="matrix" values="0 0 0 0 0 0 0 0 0 0 0 0 0 0 0 0 0 0 0.25 0"/>
<feBlend mode="normal" in2="BackgroundImageFix" result="effect1_dropShadow_2403_488"/>
<feBlend mode="normal" in="SourceGraphic" in2="effect1_dropShadow_2403_488" result="shape"/>
</filter>
<clipPath id="clip0_2403_488">
<rect width="70" height="97" fill="white" transform="translate(19)"/>
</clipPath>
</defs>
</svg>
