<svg width="23" height="23" viewBox="0 0 23 23" fill="none" xmlns="http://www.w3.org/2000/svg">
<path d="M11.3877 0C13.3044 0 14.8691 0.0224609 16.082 0.0673828C17.1152 0.112305 18.0361 0.291992 18.8447 0.606445C19.6234 0.905924 20.2972 1.34017 20.8662 1.90918C21.4352 2.47819 21.8695 3.15202 22.1689 3.93066C22.4834 4.73926 22.6631 5.66016 22.708 6.69336C22.7529 7.90625 22.7754 9.47103 22.7754 11.3877C22.7754 13.3044 22.7529 14.8691 22.708 16.082C22.6631 17.1152 22.4834 18.0361 22.1689 18.8447C21.8695 19.6234 21.4352 20.2972 20.8662 20.8662C20.2972 21.4352 19.6234 21.8695 18.8447 22.1689C18.0361 22.4834 17.1152 22.6631 16.082 22.708C14.8691 22.7529 13.3044 22.7754 11.3877 22.7754C9.47103 22.7754 7.90625 22.7529 6.69336 22.708C5.66016 22.6631 4.73926 22.4834 3.93066 22.1689C3.15202 21.8695 2.47819 21.4352 1.90918 20.8662C1.34017 20.2972 0.905924 19.6234 0.606445 18.8447C0.291992 18.0361 0.112305 17.1152 0.0673828 16.082C0.0224609 14.8691 0 13.3044 0 11.3877C0 9.47103 0.0224609 7.90625 0.0673828 6.69336C0.112305 5.66016 0.291992 4.73926 0.606445 3.93066C0.905924 3.15202 1.34017 2.47819 1.90918 1.90918C2.47819 1.34017 3.15202 0.905924 3.93066 0.606445C4.73926 0.291992 5.66016 0.112305 6.69336 0.0673828C7.90625 0.0224609 9.47103 0 11.3877 0ZM11.3877 1.48242C9.39616 1.48242 7.77148 1.50488 6.51367 1.5498C5.70508 1.57975 4.95638 1.72201 4.26758 1.97656C3.18945 2.42578 2.42578 3.18945 1.97656 4.26758C1.72201 4.95638 1.57975 5.70508 1.5498 6.51367C1.50488 7.77148 1.48242 9.39616 1.48242 11.3877C1.48242 13.3792 1.50488 15.0039 1.5498 16.2617C1.57975 17.0703 1.72201 17.819 1.97656 18.5078C2.42578 19.5859 3.18945 20.3496 4.26758 20.7988C4.95638 21.0534 5.70508 21.1956 6.51367 21.2256C7.77148 21.2705 9.39616 21.293 11.3877 21.293C13.3792 21.293 15.0039 21.2705 16.2617 21.2256C17.0703 21.1956 17.819 21.0534 18.5078 20.7988C19.5859 20.3496 20.3496 19.5859 20.7988 18.5078C21.0534 17.819 21.1956 17.0703 21.2256 16.2617C21.2705 15.0039 21.293 13.3792 21.293 11.3877C21.293 9.39616 21.2705 7.77148 21.2256 6.51367C21.1956 5.70508 21.0534 4.95638 20.7988 4.26758C20.3496 3.18945 19.5859 2.42578 18.5078 1.97656C17.819 1.72201 17.0703 1.57975 16.2617 1.5498C15.0039 1.50488 13.3792 1.48242 11.3877 1.48242ZM11.3877 15.9473C12.6455 15.9473 13.7199 15.5018 14.6108 14.6108C15.5018 13.7199 15.9473 12.6455 15.9473 11.3877C15.9473 10.1299 15.5018 9.0555 14.6108 8.16455C13.7199 7.2736 12.6455 6.82812 11.3877 6.82812C10.1299 6.82812 9.0555 7.2736 8.16455 8.16455C7.2736 9.0555 6.82812 10.1299 6.82812 11.3877C6.82812 12.6455 7.2736 13.7199 8.16455 14.6108C9.0555 15.5018 10.1299 15.9473 11.3877 15.9473ZM11.3877 5.54785C13.0049 5.54785 14.3825 6.11686 15.5205 7.25488C16.6585 8.3929 17.2275 9.77051 17.2275 11.3877C17.2275 13.0049 16.6585 14.3825 15.5205 15.5205C14.3825 16.6585 13.0049 17.2275 11.3877 17.2275C9.77051 17.2275 8.3929 16.6585 7.25488 15.5205C6.11686 14.3825 5.54785 13.0049 5.54785 11.3877C5.54785 9.77051 6.11686 8.3929 7.25488 7.25488C8.3929 6.11686 9.77051 5.54785 11.3877 5.54785ZM18.8447 5.32324C18.8447 5.69759 18.71 6.01579 18.4404 6.27783C18.1709 6.53988 17.8415 6.6709 17.4521 6.6709C17.0778 6.6709 16.7596 6.53988 16.4976 6.27783C16.2355 6.01579 16.1045 5.69759 16.1045 5.32324C16.1045 4.93392 16.2355 4.60449 16.4976 4.33496C16.7596 4.06543 17.0778 3.93066 17.4521 3.93066C17.8265 3.93066 18.1522 4.06917 18.4292 4.34619C18.7062 4.62321 18.8447 4.94889 18.8447 5.32324Z" fill="currentColor"/>
</svg>

